%TF.GenerationSoftware,KiCad,Pcbnew,9.0.3-9.0.3-0~ubuntu22.04.1*%
%TF.CreationDate,2025-08-07T16:27:34-07:00*%
%TF.ProjectId,milkv_hat,6d696c6b-765f-4686-9174-2e6b69636164,rev?*%
%TF.SameCoordinates,Original*%
%TF.FileFunction,Legend,Top*%
%TF.FilePolarity,Positive*%
%FSLAX46Y46*%
G04 Gerber Fmt 4.6, Leading zero omitted, Abs format (unit mm)*
G04 Created by KiCad (PCBNEW 9.0.3-9.0.3-0~ubuntu22.04.1) date 2025-08-07 16:27:34*
%MOMM*%
%LPD*%
G01*
G04 APERTURE LIST*
%ADD10C,0.150000*%
%ADD11C,0.120000*%
G04 APERTURE END LIST*
D10*
X124166666Y-70764819D02*
X124166666Y-71479104D01*
X124166666Y-71479104D02*
X124119047Y-71621961D01*
X124119047Y-71621961D02*
X124023809Y-71717200D01*
X124023809Y-71717200D02*
X123880952Y-71764819D01*
X123880952Y-71764819D02*
X123785714Y-71764819D01*
X124595238Y-70860057D02*
X124642857Y-70812438D01*
X124642857Y-70812438D02*
X124738095Y-70764819D01*
X124738095Y-70764819D02*
X124976190Y-70764819D01*
X124976190Y-70764819D02*
X125071428Y-70812438D01*
X125071428Y-70812438D02*
X125119047Y-70860057D01*
X125119047Y-70860057D02*
X125166666Y-70955295D01*
X125166666Y-70955295D02*
X125166666Y-71050533D01*
X125166666Y-71050533D02*
X125119047Y-71193390D01*
X125119047Y-71193390D02*
X124547619Y-71764819D01*
X124547619Y-71764819D02*
X125166666Y-71764819D01*
X114493333Y-70744819D02*
X114160000Y-70268628D01*
X113921905Y-70744819D02*
X113921905Y-69744819D01*
X113921905Y-69744819D02*
X114302857Y-69744819D01*
X114302857Y-69744819D02*
X114398095Y-69792438D01*
X114398095Y-69792438D02*
X114445714Y-69840057D01*
X114445714Y-69840057D02*
X114493333Y-69935295D01*
X114493333Y-69935295D02*
X114493333Y-70078152D01*
X114493333Y-70078152D02*
X114445714Y-70173390D01*
X114445714Y-70173390D02*
X114398095Y-70221009D01*
X114398095Y-70221009D02*
X114302857Y-70268628D01*
X114302857Y-70268628D02*
X113921905Y-70268628D01*
X114874286Y-69840057D02*
X114921905Y-69792438D01*
X114921905Y-69792438D02*
X115017143Y-69744819D01*
X115017143Y-69744819D02*
X115255238Y-69744819D01*
X115255238Y-69744819D02*
X115350476Y-69792438D01*
X115350476Y-69792438D02*
X115398095Y-69840057D01*
X115398095Y-69840057D02*
X115445714Y-69935295D01*
X115445714Y-69935295D02*
X115445714Y-70030533D01*
X115445714Y-70030533D02*
X115398095Y-70173390D01*
X115398095Y-70173390D02*
X114826667Y-70744819D01*
X114826667Y-70744819D02*
X115445714Y-70744819D01*
X119084819Y-66666666D02*
X118608628Y-66999999D01*
X119084819Y-67238094D02*
X118084819Y-67238094D01*
X118084819Y-67238094D02*
X118084819Y-66857142D01*
X118084819Y-66857142D02*
X118132438Y-66761904D01*
X118132438Y-66761904D02*
X118180057Y-66714285D01*
X118180057Y-66714285D02*
X118275295Y-66666666D01*
X118275295Y-66666666D02*
X118418152Y-66666666D01*
X118418152Y-66666666D02*
X118513390Y-66714285D01*
X118513390Y-66714285D02*
X118561009Y-66761904D01*
X118561009Y-66761904D02*
X118608628Y-66857142D01*
X118608628Y-66857142D02*
X118608628Y-67238094D01*
X119084819Y-65714285D02*
X119084819Y-66285713D01*
X119084819Y-65999999D02*
X118084819Y-65999999D01*
X118084819Y-65999999D02*
X118227676Y-66095237D01*
X118227676Y-66095237D02*
X118322914Y-66190475D01*
X118322914Y-66190475D02*
X118370533Y-66285713D01*
X109186666Y-60659819D02*
X109186666Y-61374104D01*
X109186666Y-61374104D02*
X109139047Y-61516961D01*
X109139047Y-61516961D02*
X109043809Y-61612200D01*
X109043809Y-61612200D02*
X108900952Y-61659819D01*
X108900952Y-61659819D02*
X108805714Y-61659819D01*
X110186666Y-61659819D02*
X109615238Y-61659819D01*
X109900952Y-61659819D02*
X109900952Y-60659819D01*
X109900952Y-60659819D02*
X109805714Y-60802676D01*
X109805714Y-60802676D02*
X109710476Y-60897914D01*
X109710476Y-60897914D02*
X109615238Y-60945533D01*
D11*
%TO.C,J2*%
X125830000Y-67270000D02*
X125830000Y-62130000D01*
X125830000Y-67270000D02*
X123170000Y-67270000D01*
X125830000Y-62130000D02*
X123170000Y-62130000D01*
X124500000Y-69870000D02*
X123170000Y-69870000D01*
X123170000Y-69870000D02*
X123170000Y-68540000D01*
X123170000Y-67270000D02*
X123170000Y-62130000D01*
%TO.C,R2*%
X117500000Y-70540000D02*
X117500000Y-69770000D01*
X117500000Y-62460000D02*
X117500000Y-63230000D01*
X116130000Y-69770000D02*
X118870000Y-69770000D01*
X118870000Y-63230000D01*
X116130000Y-63230000D01*
X116130000Y-69770000D01*
%TO.C,R1*%
X121000000Y-70540000D02*
X121000000Y-69770000D01*
X121000000Y-62460000D02*
X121000000Y-63230000D01*
X119630000Y-69770000D02*
X122370000Y-69770000D01*
X122370000Y-63230000D01*
X119630000Y-63230000D01*
X119630000Y-69770000D01*
%TO.C,J1*%
X103810000Y-62645000D02*
X103810000Y-70385000D01*
X103810000Y-62645000D02*
X112440000Y-62645000D01*
X103810000Y-62765000D02*
X112440000Y-62765000D01*
X103810000Y-62883095D02*
X112440000Y-62883095D01*
X103810000Y-63001190D02*
X112440000Y-63001190D01*
X103810000Y-63119285D02*
X112440000Y-63119285D01*
X103810000Y-63237380D02*
X112440000Y-63237380D01*
X103810000Y-63355475D02*
X112440000Y-63355475D01*
X103810000Y-63473570D02*
X112440000Y-63473570D01*
X103810000Y-63591665D02*
X112440000Y-63591665D01*
X103810000Y-63709760D02*
X112440000Y-63709760D01*
X103810000Y-63827855D02*
X112440000Y-63827855D01*
X103810000Y-63945950D02*
X112440000Y-63945950D01*
X103810000Y-64064045D02*
X112440000Y-64064045D01*
X103810000Y-64182140D02*
X112440000Y-64182140D01*
X103810000Y-64300235D02*
X112440000Y-64300235D01*
X103810000Y-64418330D02*
X112440000Y-64418330D01*
X103810000Y-64536425D02*
X112440000Y-64536425D01*
X103810000Y-64654520D02*
X112440000Y-64654520D01*
X103810000Y-64772615D02*
X112440000Y-64772615D01*
X103810000Y-64890710D02*
X112440000Y-64890710D01*
X103810000Y-65008805D02*
X112440000Y-65008805D01*
X103810000Y-65126900D02*
X112440000Y-65126900D01*
X103810000Y-65245000D02*
X112440000Y-65245000D01*
X103810000Y-67785000D02*
X112440000Y-67785000D01*
X103810000Y-70385000D02*
X112440000Y-70385000D01*
X112440000Y-62645000D02*
X112440000Y-70385000D01*
X112440000Y-63615000D02*
X112790000Y-63615000D01*
X112440000Y-64335000D02*
X112790000Y-64335000D01*
X112440000Y-66155000D02*
X112850000Y-66155000D01*
X112440000Y-66875000D02*
X112850000Y-66875000D01*
X112440000Y-68695000D02*
X112850000Y-68695000D01*
X112440000Y-69415000D02*
X112850000Y-69415000D01*
X113900000Y-62645000D02*
X115010000Y-62645000D01*
X115010000Y-62645000D02*
X115010000Y-63975000D01*
%TD*%
M02*
